[CENTER][IMG]http://img63.imageshack.us/img63/1050/hddesirockers.png[/IMG]
[IMG]http://img156.imageshack.us/img156/5382/roadsignphp.png[/IMG]

[IMG]http://img101.imageshack.us/img101/9209/cmiyccover.png[/IMG]

[IMG]http://img209.imageshack.us/img209/3343/25ic0hd1.png[/IMG]
[B]An FBI agent tracks down and catches a young con artist who successfully impersonated an airline pilot,doctor, assistant attorney general and history professor, cashing more than $2.5 million in fraudulent checks in 26 countries.[/B]

[IMG]http://img692.imageshack.us/img692/4868/zvbzx21.png[/IMG]
[B]General[/B]
[B] Complete name                    : Catch me if u can 2002 HDTV Rip~3385VKSH[/B]
[B] Format                           : Matroska[/B]
[B] File size                        : 807 MiB[/B]
[B] Duration                         : 2h 12mn[/B]
[B] Overall bit rate                 : 852 Kbps[/B]
[B] Encoded date                     : UTC 2010-09-15 06:49:04[/B]
[B] Writing application              : mkvmerge v4.2.0 ('No Talking') built on Jul 28 2010 18:38:23[/B]
[B] Writing library                  : libebml v1.0.0 + libmatroska v1.0.0[/B]


[IMG]http://img839.imageshack.us/img839/7057/imdb3.png[/IMG]
[SIZE=3][URL]http://www.imdb.com/title/tt0264464/[/URL][/SIZE]

[IMG]http://img214.imageshack.us/img214/241/windowsmediaplayerfile.png[/IMG]
[B]Video[/B]
[B] ID                               : 1[/B]
[B] Format                           : AVC[/B]
[B] Format/Info                      : Advanced Video Codec[/B]
[B] Format profile                   : High@L4.1[/B]
[B] Format settings, CABAC           : Yes[/B]
[B] Format settings, ReFrames        : 5 frames[/B]
[B] Muxing mode                      : Container profile=Unknown@4.1[/B]
[B] Codec ID                         : V_MPEG4/ISO/AVC[/B]
[B] Duration                         : 2h 12mn[/B]
[B] Bit rate                         : 650 Kbps[/B]
[B] Width                            : 1 280 pixels[/B]
[B] Height                           : 720 pixels[/B]
[B] Display aspect ratio             : 16:9[/B]
[B] Frame rate                       : 25.000 fps[/B]
[B] Original frame rate              : 23.976 fps[/B]
[B] Color space                      : YUV[/B]
[B] Chroma subsampling               : 4:2:0[/B]
[B] Bit depth                        : 8 bits[/B]
[B] Scan type                        : Progressive[/B]
[B] Bits/(Pixel*Frame)               : 0.028[/B]
[B] Stream size                      : 609 MiB (75%)[/B]
[B] Writing library                  : x264 core 60 r900 a9af942[/B]

[IMG]http://img821.imageshack.us/img821/5307/2l3ravv.png[/IMG]
[B]Audio[/B]
[B] ID                               : 2[/B]
[B] Format                           : MPEG Audio[/B]
[B] Format version                   : Version 1[/B]
[B] Format profile                   : Layer 3[/B]
[B] Codec ID                         : A_MPEG/L3[/B]
[B] Codec ID/Hint                    : MP3[/B]
[B] Duration                         : 2h 12mn[/B]
[B] Bit rate mode                    : Constant[/B]
[B] Bit rate                         : 192 Kbps[/B]
[B] Channel(s)                       : 2 channels[/B]
[B] Sampling rate                    : 44.1 KHz[/B]
[B] Video delay                      : 21ms[/B]
[B] Stream size                      : 182 MiB (23%)[/B]
[B] Language                         : Hindi[/B]

[IMG]http://img827.imageshack.us/img827/7996/ogtw21.gif[/IMG]
[IMG]http://img442.imageshack.us/img442/7485/catchmeifucan2002hdtvri.jpg[/IMG]
[IMG]http://img705.imageshack.us/img705/7485/catchmeifucan2002hdtvri.jpg[/IMG]
[IMG]http://img808.imageshack.us/img808/7485/catchmeifucan2002hdtvri.jpg[/IMG]
[IMG]http://img841.imageshack.us/img841/7485/catchmeifucan2002hdtvri.jpg[/IMG]

[IMG]http://img819.imageshack.us/img819/4206/slqp2p1.gif[/IMG]

[IMG]http://img843.imageshack.us/img843/5108/seedyd3.gif[/IMG]

[IMG]http://img842.imageshack.us/img842/9185/e5ab9ad248f9074c.gif[/IMG]

[IMG]http://img806.imageshack.us/img806/4074/enjoy.png[/IMG]

[IMG]http://img831.imageshack.us/img831/91/15880378.png[/IMG][/CENTER]